# xmcd CD database file
#
# Track frame offsets:
#	150
#	51980
#	88315
#	136010
#	188107
#	222685
#	253490
#
# Disc length: 4069 seconds
#
# Revision: 0
# Processed by: cddbd v1.5.2PL0 Copyright (c) Steve Scherf et al.
# Submitted via: CDex 1.77
#
DISCID=700fe307
DTITLE=Yusef Lateef - Tenors
DYEAR=1993
DGENRE=Jazz
TTITLE0=Because They Love Me
TTITLE1=Humility
TTITLE2=Virtue
TTITLE3=My Brothers' and Sisters' Keeper
TTITLE4=Signs
TTITLE5=Good Will
TTITLE6=Altruism
EXTD=YEAR: 1993
EXTT0=
EXTT1=
EXTT2=
EXTT3=
EXTT4=
EXTT5=
EXTT6=
PLAYORDER=
